<svg width="398" height="103" viewBox="0 0 398 103" fill="none" xmlns="http://www.w3.org/2000/svg">
<g clip-path="url(#clip0606)">
<path d="M113.901 37.9795H117.929L129.204 64.1517H123.882L121.442 58.1614H110.092L107.716 64.1517H102.516L113.901 37.9795ZM119.819 54.1707L115.79 43.5259L111.685 54.1707H119.819Z" fill="#E84142"/>
<path d="M134.201 37.9795H139.561L146.697 57.7556L154.053 37.9795H159.08L148.511 64.1517H144.495L134.201 37.9795Z" fill="#E84142"/>
<path d="M175.727 37.9795H179.756L191.031 64.1517H185.708L183.269 58.1614H171.918L169.551 64.1517H164.364L175.727 37.9795ZM181.646 54.1707L177.617 43.5259L173.512 54.1707H181.646Z" fill="#E84142"/>
<path d="M201.333 37.9795H205.983V59.937H217.11V64.1644H201.333V37.9795Z" fill="#E84142"/>
<path d="M236.362 37.9795H240.391L251.665 64.1517H246.343L243.904 58.1614H232.553L230.186 64.1517H224.977L236.362 37.9795ZM242.28 54.1707L238.252 43.5259L234.147 54.1707H242.28Z" fill="#E84142"/>
<path d="M261.968 37.9795H268.14L280.822 57.4258H280.894V37.9795H285.544V64.1517H279.626L266.685 44.0797H266.614V64.1517H261.963L261.968 37.9795Z" fill="#E84142"/>
<path d="M316.747 44.1177C315.98 43.2232 315.021 42.5149 313.94 42.0462C313.081 41.7053 312.166 41.5289 311.243 41.5262C309.971 41.5102 308.711 41.7623 307.544 42.266C306.475 42.7256 305.517 43.4072 304.732 44.2656C303.932 45.1242 303.305 46.1289 302.885 47.2249C302.46 48.3982 302.248 49.638 302.259 50.8859C302.245 52.2057 302.457 53.5183 302.885 54.7667C303.298 55.8987 303.926 56.9406 304.732 57.8358C305.523 58.6966 306.479 59.3883 307.544 59.8692C308.711 60.373 309.971 60.6251 311.243 60.609C312.308 60.6057 313.358 60.3523 314.308 59.8692C315.411 59.2707 316.371 58.4382 317.119 57.43L320.962 60.1652C319.867 61.7165 318.373 62.9422 316.637 63.712C314.923 64.4539 313.073 64.8311 311.205 64.8196C309.3 64.8415 307.408 64.5163 305.62 63.86C303.999 63.2291 302.517 62.287 301.257 61.0867C300.03 59.8496 299.062 58.3791 298.412 56.762C297.704 54.9881 297.352 53.0919 297.377 51.1818C297.35 49.2345 297.701 47.3005 298.412 45.4874C299.05 43.8428 300.019 42.3464 301.257 41.0908C302.503 39.8736 303.989 38.9292 305.62 38.3176C307.402 37.6363 309.297 37.2978 311.205 37.3199C312.893 37.2952 314.569 37.616 316.13 38.2626C317.771 38.972 319.22 40.0617 320.357 41.4417L316.747 44.1177Z" fill="#E84142"/>
<path d="M331.484 37.9795H336.134V48.4087H348.394V37.9837H353.044V64.156H348.394V52.6361H336.134V64.1687H331.484V37.9795Z" fill="#E84142"/>
<path d="M366.276 37.9795H383.609V42.207H370.926V48.637H382.941V52.8644H370.926V59.9623H384.272V64.1898H366.268L366.276 37.9795Z" fill="#E84142"/>
<rect x="27.658" y="23.5542" width="47.1084" height="50.5979" fill="white"/>
<path fill-rule="evenodd" clip-rule="evenodd" d="M88.611 51.0677C88.6118 58.4936 86.4105 65.753 82.2854 71.9277C78.1603 78.1024 72.2968 82.9152 65.4363 85.7574C58.5758 88.5995 51.0266 89.3434 43.7434 87.8949C36.4601 86.4464 29.77 82.8705 24.5191 77.6197C19.2682 72.3688 15.6924 65.6787 14.2439 58.3954C12.7954 51.1122 13.5393 43.5629 16.3814 36.7025C19.2236 29.842 24.0363 23.9785 30.2111 19.8534C36.3858 15.7283 43.6452 13.527 51.0711 13.5278C61.0269 13.529 70.5747 17.4844 77.6145 24.5242C84.6544 31.5641 88.6098 41.1119 88.611 51.0677V51.0677ZM40.4179 66.0076H33.1466C31.6163 66.0076 30.8596 66.0076 30.3988 65.7117C30.1541 65.5541 29.9501 65.3411 29.8032 65.0899C29.6563 64.8387 29.5707 64.5564 29.5533 64.2659C29.5279 63.7205 29.9042 63.0568 30.6609 61.7294L48.6487 30.0234C49.4139 28.6791 49.8028 28.0069 50.2932 27.7575C50.5544 27.6219 50.8444 27.5511 51.1387 27.5511C51.433 27.5511 51.723 27.6219 51.9842 27.7575C52.4704 28.0069 52.8593 28.6791 53.6245 30.0234L57.3235 36.4788V36.5126C58.169 37.9584 58.5706 38.6897 58.7524 39.4718C58.9553 40.3137 58.9553 41.1918 58.7524 42.0337C58.5706 42.8115 58.1521 43.5471 57.315 44.9929L47.8666 61.6956L47.8413 61.7379C46.9958 63.1963 46.573 63.9362 46.0023 64.4899C45.3692 65.0953 44.6012 65.5416 43.7618 65.792C43.0051 66.0076 42.1469 66.0076 40.4305 66.0076H40.4179ZM58.8158 66.0076H69.2576C70.7964 66.0076 71.5701 66.0076 72.0351 65.7032C72.2808 65.5448 72.4855 65.3304 72.6325 65.0776C72.7794 64.8249 72.8645 64.5409 72.8806 64.249C72.9059 63.7205 72.5381 63.0822 71.811 61.8309L71.7391 61.6998L66.5098 52.7545L66.4506 52.6573C65.715 51.4144 65.343 50.7845 64.8653 50.5435C64.6066 50.4121 64.3205 50.3436 64.0304 50.3436C63.7402 50.3436 63.4541 50.4121 63.1954 50.5435C62.7177 50.793 62.3288 51.4482 61.5636 52.7672L56.3554 61.7125V61.7421C55.5945 63.0568 55.214 63.7163 55.2393 64.2786C55.2568 64.5702 55.3424 64.8537 55.4892 65.1062C55.636 65.3588 55.84 65.5734 56.0848 65.7328C56.516 66.0076 57.2897 66.0076 58.8285 66.0076H58.8158Z" fill="#E84142"/>
</g>
<defs>
<clipPath id="clip0606">
<rect width="370.749" height="75.084" fill="white" transform="translate(13.5278 13.5278)"/>
</clipPath>
</defs>
</svg>
