<?xml version="1.0" encoding="utf-8"?>
<!-- Generator: Adobe Illustrator 26.0.1, SVG Export Plug-In . SVG Version: 6.00 Build 0)  -->
<svg version="1.1" id="Layer_1" xmlns="http://www.w3.org/2000/svg" xmlns:xlink="http://www.w3.org/1999/xlink" x="0px" y="0px"
	 viewBox="0 0 1200 675" style="enable-background:new 0 0 1200 675;" xml:space="preserve">
<style type="text/css">
	.st0{fill:#FFFFFF;}
	.st1{fill:#00C864;}
</style>
<g>
	<polygon class="st0" points="357.3,439.4 365.6,439.4 368.2,465.1 371.5,439.5 377.9,439.5 381.4,464.9 384.1,439.4 392.2,439.4 
		387,483.4 378.5,483.4 374.7,456.9 371.2,483.4 362.6,483.4 	"/>
	<polygon class="st0" points="395.2,439.4 403.4,439.4 406,465.1 409.3,439.5 415.8,439.5 419.3,464.9 421.9,439.4 430.1,439.4 
		424.8,483.4 416.3,483.4 412.6,456.9 409.1,483.4 400.5,483.4 	"/>
	<polygon class="st0" points="433,439.4 441.3,439.4 443.9,465.1 447.2,439.5 453.6,439.5 457.1,464.9 459.8,439.4 467.9,439.4 
		462.6,483.4 454.2,483.4 450.4,456.9 446.9,483.4 438.3,483.4 	"/>
	<rect x="382.1" y="475" class="st0" width="8.4" height="8.4"/>
	<polygon class="st0" points="490.9,465.4 482.6,439.4 491.7,439.4 495.9,453.3 499.7,439.4 508.5,439.4 500.3,465.4 500.3,483.4 
		490.9,483.4 	"/>
	<rect x="512.2" y="439.4" class="st0" width="9.7" height="44"/>
	<polygon class="st0" points="528.5,439.4 548.3,439.4 548.3,446.1 538.2,446.1 538.2,457 545.9,457 545.9,463.7 538.2,463.7 
		538.2,476.8 548.4,476.8 548.4,483.4 528.5,483.4 	"/>
	<polygon class="st0" points="552.8,439.4 562.5,439.4 562.5,476.8 572.6,476.8 572.6,483.4 552.8,483.4 	"/>
	<path class="st0" d="M576.8,439.4h11.1c3.8,0,6.8,0.5,8.9,1.4c2.1,0.9,3.6,2.4,4.5,4.4c0.9,2,1.3,4.7,1.3,8.1v16
		c0,3.4-0.4,6.1-1.3,8.1c-0.9,2-2.4,3.5-4.5,4.5c-2.1,1-5.1,1.5-8.8,1.5h-11.2V439.4z M588,476.7c1.4,0,2.5-0.2,3.1-0.6
		c0.7-0.4,1.1-1,1.3-1.8c0.2-0.8,0.3-1.9,0.3-3.4v-19.2c0-1.4-0.1-2.5-0.3-3.2c-0.2-0.7-0.6-1.3-1.3-1.7c-0.7-0.4-1.7-0.5-3.1-0.5
		h-1.5v30.5H588z"/>
	<polygon class="st0" points="613.3,465.4 604.9,439.4 614.1,439.4 618.3,453.3 622,439.4 630.8,439.4 622.6,465.4 622.6,483.4 
		613.3,483.4 	"/>
	<path class="st0" d="M638.5,439.4h11.1l8.2,44h-9l-1.5-9.3h-6.5l-1.5,9.3h-9.2L638.5,439.4z M646.5,468.3l-2.3-17.2l-2.3,17.2
		H646.5z"/>
	<polygon class="st0" points="662.3,439.4 672,439.4 672,457.4 679.4,439.4 688.9,439.4 680.7,459.3 689.2,483.4 679.4,483.4 
		673,464 672,465.7 672,483.4 662.3,483.4 	"/>
	<rect x="693.5" y="475" class="st0" width="8.4" height="8.4"/>
	<rect x="472.6" y="475" class="st0" width="8.4" height="8.4"/>
	<path class="st0" d="M708.7,480.3c-2-2.5-3-6.1-3-10.9v-15.9c0-4.8,1-8.5,3-11c2-2.5,5.4-3.7,10.2-3.7c4.6,0,7.9,1.1,9.8,3.3
		c1.9,2.2,2.9,5.3,2.9,9.4v3.8H722v-4.4c0-1.7-0.2-3-0.5-3.9c-0.4-0.9-1.2-1.4-2.6-1.4c-1.4,0-2.3,0.5-2.7,1.4c-0.4,1-0.7,2.3-0.7,4
		v20.7c0,1.7,0.2,3.1,0.7,4c0.4,0.9,1.3,1.4,2.7,1.4c1.3,0,2.2-0.5,2.6-1.4c0.4-0.9,0.6-2.3,0.6-4v-4.6h9.5v3.8c0,4.1-1,7.3-2.9,9.6
		c-1.9,2.3-5.2,3.4-9.8,3.4C714.1,484.1,710.7,482.8,708.7,480.3"/>
	<path class="st0" d="M739.3,480.4c-2-2.4-3-6.1-3-10.8v-16.3c0-4.8,1-8.4,3-10.8c2-2.4,5.4-3.6,10.2-3.6c4.8,0,8.2,1.2,10.2,3.6
		c2,2.4,3.1,6,3.1,10.8v16.3c0,4.8-1,8.4-3.1,10.8c-2,2.4-5.5,3.7-10.2,3.7C744.7,484.1,741.3,482.8,739.3,480.4 M752.2,475.8
		c0.4-0.9,0.7-2.2,0.7-3.8v-21.2c0-1.6-0.2-2.9-0.7-3.8c-0.4-0.9-1.3-1.4-2.7-1.4c-1.3,0-2.2,0.5-2.6,1.4c-0.4,0.9-0.7,2.2-0.7,3.8
		V472c0,1.6,0.2,2.8,0.6,3.8c0.4,0.9,1.3,1.4,2.7,1.4C750.8,477.2,751.7,476.7,752.2,475.8"/>
	<polygon class="st0" points="769.3,439.4 779.7,439.4 784.5,465 789.7,439.4 799.8,439.4 800.5,483.4 793.6,483.4 792.8,454.1 
		787.7,483.4 781.6,483.4 776.2,453.9 775.5,483.4 768.5,483.4 	"/>
	<path class="st1" d="M855.7,313.8c28.1,14.2,47.8,20.3,61.6,21.7c38.6,0,41.8-30.7,41.8-30.7c-14.3,23.3-32.2,17-50.7,8.5
		c-12.9-5.5-30.1-14.7-52.7-29.3c-0.1-0.1-0.3-0.2-0.4-0.2c0,0-0.1-0.1-0.1-0.1c-20.7-13.3-40.8-19.3-59.7-20.6
		c-1.4-0.1-2.8-0.2-4.2-0.3c-3.2-0.2-6.4-0.1-9.6,0c-11.2,0.5-22.9,2.9-35.1,7.4c-47.6,16.9-79.2,56.7-79.2,56.7v-64.1h-56.2v150.1
		h56.2v-33.6l30.5-21.4l36.4,55h66.4l-63.6-87.7C758.2,302.8,795.6,283.4,855.7,313.8"/>
	<path class="st1" d="M370,413.4h12.7h12.7l12.8-22.1v-16.5c0-9.2,0-14.5,3.8-22.1l16.5-32.6c0.5-0.9,0.9-1.9,1.4-2.9
		c3.1-5.9,7.2-12.2,18.8-14.5c0,0,0,0,0,0c94.7-14.3,76.4-92.6,69.6-109.8c-0.6-1.5-1-2.1-1.3-2.1c-0.4,0-0.5,1-0.6,2.3
		c-1.5,69.4-49.3,69.7-85.8,69.7h-15.1c-2.3,0-4.3,1.5-4.9,3.7l-7.5,27.2l-7.6-10.5l-12.8,25.8l-12.8-25.8l-7.6,10.5l-7.5-27.1
		c-0.6-2.2-2.6-3.8-5-3.8h-15c-36.5,0-84.4-0.3-85.8-69.7c-0.1-1.3-0.2-2.3-0.6-2.3c-0.3,0-0.7,0.6-1.3,2.1
		c-6.8,17.2-25.1,95.5,69.6,109.8c0,0,0,0,0,0c11.6,2.3,15.7,8.6,18.8,14.5c0.5,1,1,1.9,1.4,2.9l16.5,32.6
		c3.8,7.6,3.8,12.8,3.8,22.1v16.5L370,413.4z"/>
	<path class="st1" d="M547.3,262.7H527c-1,2.3-2.2,4.6-3.5,6.9c-11.8,20.4-32.5,34-61.8,40.6l-43.6,102.6h57.5l7.4-21.2h61.3
		l7.4,21.2h59.5L547.3,262.7z M494.7,358l18.6-53.5h1l18.3,53.5H494.7z"/>
</g>
</svg>
