<svg id="Layer_1" data-name="Layer 1" xmlns="http://www.w3.org/2000/svg" xmlns:xlink="http://www.w3.org/1999/xlink" viewBox="0 0 3000 3000"><defs><style>.cls-1{fill:#fff;}.cls-2{fill:url(#linear-gradient);}</style><linearGradient id="linear-gradient" x1="851.49" y1="578.9" x2="2292.52" y2="1975.82" gradientUnits="userSpaceOnUse"><stop offset="0" stop-color="#0095ff"/><stop offset="1" stop-color="#0000ce"/></linearGradient></defs><path class="cls-1" d="M699.57,2327V2591.8h-112V2475.66H366.37V2591.8H255.76V2327c0-147.25,89.18-227.44,221.9-227.44S699.57,2179.79,699.57,2327Zm-112,58.75v-69.12c0-82.26-44.25-121.67-110.61-121.67-67.06,0-110.6,39.41-110.6,121.67v69.12Z"/><path class="cls-1" d="M1164.76,2219.89,1007.84,2591.8H896.55L740.31,2219.89h111.3l103,253,106.46-253Z"/><path class="cls-1" d="M1576.05,2219.89V2591.8h-103v-42.86c-27,32.49-66.37,48.39-116.14,48.39-105.08,0-186-74.66-186-191.48s80.87-191.49,186-191.49c45.63,0,84.34,14.52,111.3,44.93v-39.4Zm-105.77,186c0-64.3-41.48-103-94.7-103-53.92,0-95.4,38.71-95.4,103s41.48,103,95.4,103C1428.8,2508.84,1470.28,2470.13,1470.28,2405.85Z"/><path class="cls-1" d="M1675.56,2468.75V2078.87H1783.4v383.65c0,31.81,16.58,49.08,46.31,49.08,11.75,0,24.2-3.45,30.42-6.9l4.84,83.64a175.44,175.44,0,0,1-56,9C1725.33,2597.33,1675.56,2551.7,1675.56,2468.75Z"/><path class="cls-1" d="M1883.62,2405.85c0-112,86.41-191.49,204.62-191.49s203.93,79.5,203.93,191.49-85.72,191.48-203.93,191.48S1883.62,2517.83,1883.62,2405.85Zm299.33,0c0-64.3-40.79-103-94.71-103s-95.4,38.71-95.4,103,41.48,103,95.4,103S2183,2470.13,2183,2405.85Z"/><path class="cls-1" d="M2744.24,2378.88V2591.8H2636.4V2395.48c0-60.15-27.65-87.8-75.35-87.8-51.84,0-89.18,31.8-89.18,100.23V2591.8H2364V2219.89h103v43.55c29-31.8,72.59-49.08,123.06-49.08C2677.88,2214.36,2744.24,2265.51,2744.24,2378.88Z"/><path class="cls-2" d="M2176.7,1443.24H1863.11L1511.79,904.75l-374.35,538.49-.14.14-.15-.14H823.28a179.58,179.58,0,0,1,8.78-191.35l536.76-772a180,180,0,0,1,298.47,4.46l503.65,771.88A179.77,179.77,0,0,1,2176.7,1443.24Z"/><polygon class="cls-1" points="1862.96 1443.24 1499.99 1893.61 1137.3 1443.38 1137.15 1443.24 1862.96 1443.24"/></svg>