<svg id="Layer_1" data-name="Layer 1" xmlns="http://www.w3.org/2000/svg" xmlns:xlink="http://www.w3.org/1999/xlink" viewBox="0 0 3000 873.49"><defs><style>.cls-1{fill:#fff;}.cls-2{fill:url(#linear-gradient);}</style><linearGradient id="linear-gradient" x1="155.12" y1="180.29" x2="804.33" y2="809.63" gradientUnits="userSpaceOnUse"><stop offset="0" stop-color="#0095ff"/><stop offset="1" stop-color="#0000ce"/></linearGradient></defs><path class="cls-1" d="M1259.15,428V636.39H1171V545H997v91.39h-87V428c0-115.87,70.18-179,174.62-179S1259.15,312.17,1259.15,428ZM1171,474.28v-54.4c0-64.73-34.81-95.74-87-95.74-52.77,0-87,31-87,95.74v54.4Z"/><path class="cls-1" d="M1625.22,343.72,1501.74,636.39h-87.58L1291.22,343.72h87.58l81,199.1,83.78-199.1Z"/><path class="cls-1" d="M1948.88,343.72V636.39h-81.06V602.66c-21.22,25.57-52.22,38.08-91.39,38.08-82.69,0-146.33-58.76-146.33-150.68s63.64-150.69,146.33-150.69c35.9,0,66.37,11.43,87.58,35.36v-31Zm-83.23,146.34c0-50.6-32.65-81.06-74.53-81.06-42.43,0-75.07,30.46-75.07,81.06s32.64,81.05,75.07,81.05C1833,571.11,1865.65,540.64,1865.65,490.06Z"/><path class="cls-1" d="M2027.18,539.56V232.75H2112V534.66c0,25,13.05,38.62,36.45,38.62,9.24,0,19-2.72,23.93-5.43l3.81,65.82a138.08,138.08,0,0,1-44.06,7.07C2066.35,640.74,2027.18,604.83,2027.18,539.56Z"/><path class="cls-1" d="M2190.91,490.06c0-88.13,68-150.69,161-150.69s160.47,62.56,160.47,150.69S2445,640.74,2351.93,640.74,2190.91,578.18,2190.91,490.06Zm235.55,0c0-50.6-32.1-81.06-74.53-81.06s-75.07,30.46-75.07,81.06,32.64,81.05,75.07,81.05S2426.46,540.64,2426.46,490.06Z"/><path class="cls-1" d="M2868.15,468.84V636.39h-84.86V481.9c0-47.33-21.76-69.09-59.3-69.09-40.79,0-70.17,25-70.17,78.87V636.39H2569V343.72H2650V378c22.85-25,57.12-38.62,96.83-38.62C2815.93,339.37,2868.15,379.63,2868.15,468.84Z"/><path class="cls-2" d="M752.15,569.69H610.87L452.6,327.09,284,569.69l-.07.07-.06-.07H142.41a80.93,80.93,0,0,1,4-86.21L388.19,135.67a81.07,81.07,0,0,1,134.46,2L749.56,485.43A81,81,0,0,1,752.15,569.69Z"/><polygon class="cls-1" points="610.81 569.69 447.28 772.59 283.88 569.75 283.82 569.69 610.81 569.69"/></svg>