<svg xmlns="http://www.w3.org/2000/svg" width="859" height="264" viewBox="0 0 859 264" fill="none"><g clip-path="url(#clip0_10129_24054)"><path d="M294.894 130.258C294.645 124.121 295.614 117.996 297.744 112.235C299.875 106.475 303.125 101.193 307.307 96.6953C311.489 92.1974 316.521 88.5722 322.111 86.0288C327.702 83.4853 333.74 82.0741 339.879 81.8765H341.786C365.512 81.8765 379.514 95.8326 383.655 112.161L368.908 117.092C367.583 111.008 364.115 105.602 359.136 101.861C354.157 98.1209 347.999 96.2949 341.786 96.7165C326.435 96.7165 311.036 107.928 311.036 130.537C311.036 153.146 326.062 163.939 341.972 163.939C348.216 164.109 354.337 162.18 359.355 158.461C364.373 154.742 367.999 149.447 369.652 143.423L384.12 148.075C381.623 157.264 376.068 165.327 368.372 170.934C360.676 176.541 351.298 179.357 341.786 178.918C329.567 179.142 317.758 174.505 308.956 166.026C300.154 157.547 295.079 145.92 294.847 133.7C294.801 132.584 294.847 131.421 294.894 130.258Z" fill="white"></path><path d="M412.822 176.778H397.563V81.5972H412.822V118.814C415.037 116.186 417.823 114.1 420.968 112.713C424.112 111.326 427.531 110.676 430.965 110.812C446.736 110.812 454.225 122.116 454.225 136.212V176.778H439.525V138.91C439.965 135.682 439.12 132.41 437.171 129.8C435.221 127.189 432.325 125.449 429.104 124.954C428.192 124.861 427.272 124.861 426.36 124.954C422.831 124.954 419.447 126.356 416.952 128.851C414.457 131.346 413.055 134.73 413.055 138.259C413.032 138.646 413.032 139.035 413.055 139.422L412.822 176.778Z" fill="white"></path><path d="M488.464 140.12L504.839 137.561C508.561 137.096 509.491 135.189 509.491 132.909C509.491 127.513 505.863 123.186 497.396 123.186C494.198 122.928 491.028 123.94 488.572 126.004C486.116 128.068 484.573 131.017 484.277 134.212V134.909L470.321 131.793C471.484 120.721 481.533 110.858 497.256 110.858C516.981 110.858 524.471 122.023 524.471 135.049V166.822C524.455 170.265 524.719 173.704 525.262 177.104H511.306C510.803 174.405 510.6 171.659 510.701 168.916C508.583 172.176 505.646 174.824 502.185 176.595C498.724 178.366 494.86 179.199 490.976 179.011C485.672 179.449 480.411 177.765 476.347 174.329C472.283 170.893 469.748 165.985 469.298 160.682C469.298 160.356 469.298 160.031 469.298 159.751C469.065 147.982 477.485 141.655 488.464 140.12ZM509.584 150.401V147.47L492.884 149.982C490.616 150.054 488.465 150.999 486.878 152.62C485.292 154.242 484.393 156.413 484.37 158.681C484.388 159.805 484.63 160.915 485.081 161.944C485.532 162.974 486.184 163.903 486.998 164.678C487.812 165.453 488.772 166.059 489.823 166.459C490.873 166.859 491.993 167.046 493.116 167.009H493.814C495.718 167.208 497.643 167.028 499.478 166.481C501.312 165.933 503.02 165.028 504.503 163.817C505.986 162.606 507.215 161.114 508.119 159.426C509.023 157.738 509.585 155.888 509.77 153.983C509.837 152.784 509.759 151.581 509.538 150.401H509.584Z" fill="white"></path><path d="M550.43 80.2952C551.741 80.2768 553.043 80.5176 554.261 81.0038C555.479 81.49 556.589 82.2121 557.527 83.1285C558.465 84.0449 559.212 85.1377 559.727 86.3439C560.241 87.5502 560.512 88.8462 560.525 90.1575C560.524 92.1205 559.944 94.0397 558.856 95.6737C557.768 97.3076 556.221 98.5836 554.41 99.341C552.599 100.098 550.605 100.304 548.678 99.9306C546.75 99.5576 544.976 98.6232 543.579 97.2449C542.181 95.8665 541.222 94.1057 540.822 92.1839C540.423 90.262 540.6 88.2648 541.332 86.4435C542.064 84.6221 543.319 83.0579 544.937 81.9473C546.556 80.8368 548.467 80.2297 550.43 80.2021V80.2952ZM542.986 177.058V112.766H558.245V176.779L542.986 177.058Z" fill="white"></path><path d="M592.996 176.778H577.784V112.766H592.624V121.279C594.558 118.01 597.337 115.322 600.669 113.496C604 111.671 607.761 110.776 611.558 110.905C627.188 110.905 634.818 122.209 634.818 136.305V176.778H619.606V138.91C619.606 131.048 616.024 124.675 606.44 124.675C604.669 124.687 602.917 125.048 601.285 125.737C599.652 126.427 598.172 127.431 596.928 128.692C595.684 129.953 594.7 131.447 594.034 133.089C593.367 134.73 593.03 136.487 593.042 138.259C593.042 138.771 593.042 139.282 593.042 139.794L592.996 176.778Z" fill="white"></path><path d="M653.24 176.778V81.5972H668.498V176.778H653.24Z" fill="white"></path><path d="M695.713 80.2936C697.677 80.2844 699.599 80.8589 701.236 81.9441C702.872 83.0294 704.149 84.5764 704.905 86.3889C705.661 88.2014 705.861 90.1976 705.48 92.124C705.099 94.0505 704.155 95.8204 702.766 97.2089C701.378 98.5975 699.608 99.5422 697.681 99.923C695.755 100.304 693.759 100.104 691.946 99.348C690.134 98.5923 688.587 97.315 687.501 95.6784C686.416 94.0418 685.841 92.1196 685.851 90.1559C685.875 87.5478 686.922 85.0533 688.766 83.209C690.61 81.3647 693.105 80.3178 695.713 80.2936V80.2936ZM688.223 177.056V112.765H703.342V176.777L688.223 177.056Z" fill="white"></path><path d="M738.326 176.777H723.067V112.765H737.907V121.278C739.845 118.012 742.625 115.327 745.955 113.502C749.286 111.677 753.045 110.78 756.841 110.904C772.472 110.904 780.101 122.208 780.101 136.304V176.777H764.842V138.909C765.283 135.681 764.437 132.409 762.488 129.799C760.539 127.188 757.642 125.448 754.422 124.953C753.494 124.86 752.559 124.86 751.631 124.953C748.077 124.99 744.681 126.427 742.181 128.953C739.681 131.48 738.279 134.89 738.279 138.444C738.232 138.986 738.232 139.53 738.279 140.072L738.326 176.777Z" fill="white"></path><path d="M832.158 139.794L859 177.011H840.392L821.784 150.634L813.922 158.914V176.778H798.802V81.5972H813.922V138.631L838.484 112.766H858.721L832.158 139.794Z" fill="white"></path><path d="M114.254 55.8245L180.22 93.6922V169.8L114.44 207.9L48.5208 170.125V94.0643L114.254 55.8245ZM114.254 0L90.0636 13.9561L24.1906 52.1959L0 66.1521V198.131L24.1906 212.087L90.1566 249.954L114.347 263.91L138.538 249.954L204.271 211.808L228.462 197.851V65.6869L204.271 51.7307L138.352 13.9561L114.161 0H114.254Z" fill="white"></path></g><defs><clipPath id="clip0_10129_24054"><rect width="859" height="263.817" fill="white"></rect></clipPath></defs></svg>