<svg xmlns="http://www.w3.org/2000/svg" width="241" height="45" viewBox="0 0 241 45" fill="none"><path fill-rule="evenodd" clip-rule="evenodd" d="M0.501539 18.372C0.715431 9.46639 7.90626 2.31543 16.7354 2.31543C25.578 2.31543 32.7554 9.46959 32.9692 18.372C33.039 21.279 30.771 23.6929 27.9035 23.7637C25.036 23.8344 22.6548 21.5353 22.585 18.6283C22.5079 15.4212 19.9212 12.8455 16.7354 12.8455C13.5761 12.8455 10.9943 15.3931 10.8875 18.57C10.9047 22.8296 12.4985 27.0202 14.3091 30.3512C15.1984 31.9873 16.0888 33.3222 16.7488 34.2374C17.0773 34.6929 17.3446 35.0387 17.5204 35.2598C17.6082 35.3701 17.6728 35.4489 17.7104 35.4942C17.7292 35.5168 17.7412 35.5311 17.7459 35.5367L17.744 35.5345L17.7416 35.5317C17.7434 35.5338 17.7452 35.5359 17.747 35.538C19.6245 37.7277 19.4008 41.046 17.2445 42.9563C15.0846 44.8697 11.8036 44.6458 9.91614 42.4563L13.8269 38.9917C9.91614 42.4563 9.91514 42.4551 9.9141 42.4539L9.90687 42.4455L9.89462 42.4312C9.88546 42.4205 9.87433 42.4074 9.86131 42.392C9.83526 42.3612 9.80158 42.3211 9.7608 42.2719C9.67925 42.1737 9.56911 42.0389 9.43451 41.8697C9.16554 41.5316 8.79741 41.0539 8.36343 40.4521C7.49845 39.2527 6.35552 37.5379 5.21149 35.4331C2.96536 31.3008 0.5 25.2732 0.5 18.5002V18.4361L0.501539 18.372ZM17.7405 35.5304L17.7412 35.5313L17.7416 35.5317C17.7412 35.5313 17.7409 35.5308 17.7405 35.5304Z" fill="white"></path><path fill-rule="evenodd" clip-rule="evenodd" d="M33.2109 18.375V19.0715C33.2109 21.9438 30.8857 24.2722 28.0173 24.2722C25.1489 24.2722 22.8236 21.9438 22.8236 19.0715V18.2385L22.8251 18.1752C23.039 9.37833 30.2299 2.3147 39.059 2.3147C47.8881 2.3147 55.079 9.37833 55.2929 18.1752L55.2944 18.2385V18.3018C55.2944 23.8219 53.5728 28.7725 51.9877 32.1978C51.1815 33.94 50.3743 35.3653 49.7598 36.3683C49.4516 36.8714 49.189 37.2728 48.9953 37.5596C48.8984 37.7031 48.8185 37.8183 48.7585 37.9036C48.7285 37.9462 48.7034 37.9814 48.6836 38.009C48.6737 38.0228 48.6652 38.0346 48.658 38.0446L48.6482 38.058L48.6423 38.0662C48.6414 38.0673 48.6406 38.0685 44.6231 35.1231L48.6405 38.0685C46.946 40.386 43.6962 40.8892 41.3819 39.1924C39.072 37.4989 38.5669 34.2539 40.2497 31.9373C40.2522 31.9337 40.2586 31.9249 40.2685 31.9108C40.2912 31.8785 40.3327 31.8189 40.3903 31.7335C40.5057 31.5627 40.6846 31.2903 40.9061 30.9288C41.3511 30.2025 41.9566 29.1353 42.563 27.8247C43.7951 25.1622 44.8924 21.7929 44.9069 18.3706C44.8 15.2326 42.2183 12.7162 39.059 12.7162C35.8983 12.7162 33.3156 15.2349 33.2109 18.375Z" fill="white"></path><path d="M44.4716 40.8739C47.4605 40.8739 49.8834 38.4509 49.8834 35.4621C49.8834 32.4732 47.4605 30.0503 44.4716 30.0503C41.4828 30.0503 39.0598 32.4732 39.0598 35.4621C39.0598 38.4509 41.4828 40.8739 44.4716 40.8739Z" fill="#B7E803"></path><path d="M98.6985 10.7608C101.636 10.7608 104.004 11.7011 105.772 13.5816C107.556 15.4622 108.448 17.9547 108.448 21.074V36.3573H100.744V21.7158C100.744 20.4472 100.421 19.4621 99.7903 18.7308C99.1598 17.9995 98.2372 17.6413 97.0377 17.6413C95.7767 17.6413 94.7925 18.0592 94.0851 18.88C93.3777 19.7158 93.0394 20.8502 93.0394 22.3128V36.3573H85.335V21.7158C85.335 20.4472 85.0121 19.4621 84.3816 18.7308C83.7511 17.9995 82.8284 17.6413 81.6289 17.6413C80.3679 17.6413 79.3837 18.0592 78.6764 18.88C77.969 19.7158 77.6307 20.8502 77.6307 22.3128V36.3573H69.957V11.4473H77.6614V13.7309C79.0608 11.7458 81.3521 10.7458 84.5354 10.7458C87.5187 10.7458 89.7485 11.8354 91.2556 14.0294C92.8241 11.8503 95.3 10.7608 98.6985 10.7608Z" fill="white"></path><path d="M135.684 33.238C133.055 35.7753 129.841 37.0439 126.042 37.0439C122.244 37.0439 119.03 35.7753 116.4 33.238C113.771 30.7007 112.448 27.5814 112.448 23.8949C112.448 20.2084 113.771 17.1039 116.4 14.5518C119.03 12.0145 122.244 10.7458 126.042 10.7458C129.841 10.7458 133.055 12.0145 135.684 14.5518C138.314 17.089 139.636 20.2084 139.636 23.8949C139.636 27.5963 138.329 30.7007 135.684 33.238ZM121.829 28.1336C122.951 29.2231 124.366 29.7754 126.042 29.7754C127.718 29.7754 129.118 29.2231 130.256 28.1336C131.394 27.0441 131.947 25.6262 131.947 23.8949C131.947 22.1636 131.378 20.7606 130.256 19.6561C129.133 18.5517 127.718 18.0144 126.042 18.0144C124.366 18.0144 122.967 18.5666 121.829 19.6561C120.691 20.7457 120.137 22.1636 120.137 23.8949C120.137 25.6262 120.706 27.0441 121.829 28.1336Z" fill="white"></path><path d="M151.691 15.8806C152.167 14.2836 153.136 13.0598 154.597 12.224C156.058 11.3732 157.657 10.9553 159.395 10.9553V19.4179C157.519 19.1194 155.766 19.4328 154.136 20.3432C152.506 21.2536 151.706 22.8357 151.706 25.1043V36.3579H144.002V11.4479H151.706V15.8806H151.691Z" fill="white"></path><path d="M180.848 11.4473H188.553V36.3424H180.848V33.9992C179.034 36.029 176.481 37.0439 173.206 37.0439C169.822 37.0439 166.931 35.7753 164.532 33.238C162.133 30.7007 160.934 27.5814 160.934 23.8949C160.934 20.2084 162.133 17.1039 164.532 14.5518C166.931 12.0145 169.822 10.7458 173.206 10.7458C176.497 10.7458 179.034 11.7608 180.848 13.7906V11.4473ZM170.33 28.3426C171.453 29.4321 172.929 29.9843 174.743 29.9843C176.558 29.9843 178.034 29.4321 179.157 28.3426C180.28 27.253 180.848 25.7754 180.848 23.9098C180.848 22.0442 180.28 20.5666 179.157 19.477C178.034 18.3875 176.558 17.8353 174.743 17.8353C172.929 17.8353 171.453 18.3875 170.33 19.477C169.207 20.5666 168.638 22.0442 168.638 23.9098C168.623 25.7605 169.192 27.2381 170.33 28.3426Z" fill="white"></path><path d="M194.18 36.3576V0H201.884V36.3576H194.18Z" fill="white"></path><path d="M214.634 7.93975C213.726 8.82033 212.634 9.25316 211.373 9.25316C210.112 9.25316 209.021 8.82033 208.113 7.93975C207.206 7.05917 206.76 5.99949 206.76 4.77563C206.76 3.55177 207.206 2.49209 208.113 1.61151C209.021 0.730924 210.112 0.298096 211.373 0.298096C212.634 0.298096 213.726 0.745849 214.634 1.61151C215.541 2.49209 215.987 3.55177 215.987 4.77563C215.987 6.01441 215.541 7.05917 214.634 7.93975ZM207.529 36.3572V11.4472H215.233V36.3422H207.529V36.3572Z" fill="white"></path><path d="M227.889 18.7312C227.889 19.2237 228.32 19.6416 229.196 19.955C230.073 20.2685 231.119 20.5819 232.349 20.8953C233.579 21.2087 234.809 21.6117 236.04 22.1192C237.27 22.6117 238.316 23.4326 239.192 24.5818C240.069 25.7311 240.499 27.1639 240.499 28.8952C240.499 31.5817 239.469 33.6115 237.424 34.9996C235.378 36.3727 232.841 37.0592 229.827 37.0592C224.414 37.0592 220.739 35.0891 218.801 31.1339L225.475 27.4474C226.152 29.4026 227.612 30.3877 229.842 30.3877C231.688 30.3877 232.61 29.8802 232.61 28.8504C232.61 28.3579 232.18 27.94 231.303 27.6116C230.427 27.2833 229.381 26.9549 228.151 26.6415C226.92 26.3281 225.69 25.9102 224.46 25.4027C223.23 24.8952 222.184 24.0893 221.308 22.9848C220.431 21.8804 220 20.5371 220 18.9551C220 16.3581 220.969 14.3581 222.907 12.9253C224.844 11.4925 227.228 10.791 230.058 10.791C232.18 10.791 234.117 11.2537 235.855 12.1641C237.593 13.0746 239.008 14.4029 240.069 16.1193L233.502 19.5521C232.687 18.0894 231.534 17.3581 230.058 17.3581C228.612 17.3282 227.889 17.7909 227.889 18.7312Z" fill="white"></path></svg>